<svg xmlns="http://www.w3.org/2000/svg" viewBox="0 0 24 24">
  <defs>
    <linearGradient id="g" x1="0" y1="0" x2="24" y2="24" gradientUnits="userSpaceOnUse">
      <stop offset="0" stop-color="#ef6b54"/>
      <stop offset=".5" stop-color="#a884ec"/>
      <stop offset="1" stop-color="#5f8bef"/>
    </linearGradient>
  </defs>
  <rect width="24" height="24" rx="5.5" fill="#0a0a0c"/>
  <g transform="translate(12 12) scale(.72) translate(-12 -12)" fill="url(#g)">
    <path d="M18.6,6.62 C15.5,6.62 13.18,8.62 12,10.5 C10.82,8.62 8.5,6.62 5.4,6.62 C2.42,6.62 0,9.04 0,12 C0,14.96 2.42,17.38 5.4,17.38 C8.5,17.38 10.82,15.38 12,13.5 C13.18,15.38 15.5,17.38 18.6,17.38 C21.58,17.38 24,14.96 24,12 C24,9.04 21.58,6.62 18.6,6.62 Z M5.4,14.78 C3.86,14.78 2.6,13.54 2.6,12 C2.6,10.46 3.86,9.22 5.4,9.22 C7.26,9.22 8.69,10.66 9.68,12 C8.69,13.34 7.26,14.78 5.4,14.78 Z M18.6,14.78 C16.74,14.78 15.31,13.34 14.32,12 C15.31,10.66 16.74,9.22 18.6,9.22 C20.14,9.22 21.4,10.46 21.4,12 C21.4,13.54 20.14,14.78 18.6,14.78 Z"/>
  </g>
</svg>
